<svg width="302" height="302" viewBox="0 0 302 302" fill="none" xmlns="http://www.w3.org/2000/svg">
<g clip-path="url(#clip0)">
<path d="M31.6992 200.1C34.7078 201.013 38.1887 202.014 40.7395 200.06C42.3165 198.852 43.1377 196.763 44.5766 195.373C46.6404 193.372 49.7362 193.078 52.4032 193.864C55.0703 194.651 57.4103 196.382 59.6704 198.074C61.9886 194.524 66.9375 194.246 70.5711 196.096C74.2046 197.947 76.8644 201.339 79.7712 204.397C80.7188 205.546 81.8981 206.438 83.2159 207.002C84.4057 207.306 85.6305 207.413 86.8494 207.32C91.6533 207.378 96.3348 208.983 100.308 211.935C101.291 212.565 102.092 213.484 102.619 214.588C103.571 216.931 102.161 219.647 100.395 221.331C95.3084 226.216 87.7796 226.2 80.9921 225.922L30.6164 223.825C26.7866 223.658 22.9132 223.5 19.2143 222.388C12.6303 220.41 7.08544 212.777 11.4312 205.429C15.5953 198.281 25.1515 198.106 31.6992 200.1Z" fill="white"/>
<path d="M79.4442 116.349V299.522C77.9908 299.029 76.4865 298.473 75.0113 297.878V116.349H79.4442Z" fill="#343A40"/>
<path d="M102.248 116.349V301.984C100.795 301.984 99.2908 301.984 97.8156 301.984V116.349H102.248Z" fill="#343A40"/>
<path d="M99.5524 122.584H76.908V126.484H99.5524V122.584Z" fill="#343A40"/>
<path d="M99.5524 137.008H76.908V140.908H99.5524V137.008Z" fill="#343A40"/>
<path d="M99.5524 151.425H76.908V155.325H99.5524V151.425Z" fill="#343A40"/>
<path d="M99.5524 165.849H76.908V169.749H99.5524V165.849Z" fill="#343A40"/>
<path d="M99.5524 180.274H76.908V184.174H99.5524V180.274Z" fill="#343A40"/>
<path d="M99.5524 194.698H76.908V198.598H99.5524V194.698Z" fill="#343A40"/>
<path d="M99.5524 209.123H76.908V213.023H99.5524V209.123Z" fill="#343A40"/>
<path d="M99.5524 223.547H76.908V227.447H99.5524V223.547Z" fill="#343A40"/>
<path d="M99.5524 237.972H76.908V241.872H99.5524V237.972Z" fill="#343A40"/>
<path d="M99.5524 252.388H76.908V256.288H99.5524V252.388Z" fill="#343A40"/>
<path d="M99.5524 266.813H76.908V270.713H99.5524V266.813Z" fill="#343A40"/>
<path d="M99.5524 281.237H76.908V285.137H99.5524V281.237Z" fill="#343A40"/>
<path d="M99.5524 295.661V299.554H79.5532H79.4442C78.594 299.268 77.7583 298.974 76.9153 298.656V295.693L99.5524 295.661Z" fill="#343A40"/>
<path d="M209.853 204.389V298.592L207.317 298.751L205.413 298.863V204.389H209.853Z" fill="#343A40"/>
<path d="M232.65 204.389V295.201C231.763 295.511 230.862 295.781 229.954 295.995C229.38 296.154 228.805 296.297 228.217 296.432V204.389H232.65Z" fill="#343A40"/>
<path d="M229.954 210.505H207.309V214.405H229.954V210.505Z" fill="#343A40"/>
<path d="M229.954 224.929H207.309V228.829H229.954V224.929Z" fill="#343A40"/>
<path d="M229.954 239.354H207.309V243.254H229.954V239.354Z" fill="#343A40"/>
<path d="M229.954 253.778H207.309V257.678H229.954V253.778Z" fill="#343A40"/>
<path d="M229.954 267.623H207.309V271.523H229.954V267.623Z" fill="#343A40"/>
<path d="M229.954 281.467H207.309V285.367H229.954V281.467Z" fill="#343A40"/>
<path d="M229.954 295.312V296.019C229.38 296.178 228.805 296.321 228.217 296.456C223.242 297.495 218.205 298.138 213.145 298.378L209.853 298.592L207.317 298.751V295.312H229.954Z" fill="#343A40"/>
<path d="M145.873 37.4273H141.44V300.856H145.873V37.4273Z" fill="#343A40"/>
<path d="M168.677 37.4273H164.244V300.856H168.677V37.4273Z" fill="#343A40"/>
<path d="M165.981 43.6546H143.337V47.5546H165.981V43.6546Z" fill="#343A40"/>
<path d="M165.981 58.079H143.337V61.979H165.981V58.079Z" fill="#343A40"/>
<path d="M165.981 72.5035H143.337V76.4035H165.981V72.5035Z" fill="#343A40"/>
<path d="M165.981 86.928H143.337V90.828H165.981V86.928Z" fill="#343A40"/>
<path d="M165.981 101.352H143.337V105.252H165.981V101.352Z" fill="#343A40"/>
<path d="M165.981 115.777H143.337V119.677H165.981V115.777Z" fill="#343A40"/>
<path d="M165.981 130.201H143.337V134.101H165.981V130.201Z" fill="#343A40"/>
<path d="M165.981 144.618H143.337V148.518H165.981V144.618Z" fill="#343A40"/>
<path d="M165.981 159.042H143.337V162.942H165.981V159.042Z" fill="#343A40"/>
<path d="M165.981 173.467H143.337V177.367H165.981V173.467Z" fill="#343A40"/>
<path d="M165.981 187.891H143.337V191.791H165.981V187.891Z" fill="#343A40"/>
<path d="M165.981 202.316H143.337V206.216H165.981V202.316Z" fill="#343A40"/>
<path d="M165.981 216.74H143.337V220.64H165.981V216.74Z" fill="#343A40"/>
<path d="M165.981 230.815H143.337V234.715H165.981V230.815Z" fill="#343A40"/>
<path d="M165.981 244.89H143.337V248.79H165.981V244.89Z" fill="#343A40"/>
<path d="M165.981 258.965H143.337V262.865H165.981V258.965Z" fill="#343A40"/>
<path d="M165.981 273.048H143.337V276.948H165.981V273.048Z" fill="#343A40"/>
<path d="M165.981 287.123H143.337V291.023H165.981V287.123Z" fill="#343A40"/>
<path d="M85.2434 146.683C82.3365 148.939 84.3495 160.98 84.9164 162.903C85.0749 163.173 85.2921 163.397 85.5486 163.554C86.5297 163.872 87.2273 163.506 87.1619 162.283C87.0456 160.091 86.675 157.898 86.8349 155.714C86.8241 155.446 86.871 155.18 86.972 154.935C87.073 154.691 87.2252 154.476 87.4163 154.308C87.6281 154.193 87.8626 154.135 88.0994 154.141C88.8261 154.094 89.3275 153.983 89.7635 154.689C90.2986 155.67 90.5822 156.789 90.5847 157.93C90.6792 159.416 90.8391 160.901 90.9989 162.386C91.3936 165.337 91.5927 168.316 91.5949 171.298C91.5585 172.712 91.4422 174.213 92.0382 175.468C92.1391 175.722 92.2918 175.947 92.4845 176.126C92.6772 176.305 92.9049 176.433 93.15 176.501C94.8505 176.771 94.6034 170.099 94.6398 168.939C94.7561 165.722 94.8142 162.497 94.8651 159.281C94.8651 157.12 94.8651 154.952 95.0177 152.799C95.0593 152.486 95.042 152.167 94.9668 151.862C94.8651 151.528 94.1456 151.631 93.9058 151.393C92.8571 150.498 91.7548 149.681 90.6065 148.947C89.6691 148.24 86.2244 145.912 85.2434 146.683Z" fill="#2E2E3F"/>
<path d="M92.06 133.593C93.5134 133.672 95.0467 134.308 95.6935 135.722C95.9073 136.273 96.0398 136.857 96.0859 137.453C96.3614 140.355 96.4803 143.273 96.442 146.191C96.4617 146.957 96.4301 147.724 96.3476 148.486C96.2683 149.093 96.1244 149.687 95.9188 150.257C95.701 150.978 95.2784 151.604 94.7125 152.044C93.9346 152.458 93.06 152.602 92.2053 152.458C91.3598 152.447 90.5201 152.303 89.7127 152.029C89.3101 151.886 88.9415 151.647 88.6336 151.33C88.3256 151.013 88.0861 150.625 87.9322 150.194C87.7951 149.648 87.7557 149.079 87.816 148.518L88.1575 140.575C88.2157 139.225 88.2665 137.874 88.3247 136.524C88.3247 135.69 88.8552 132.362 89.6255 131.893C90.3958 131.424 91.217 133.545 92.06 133.593Z" fill="#343A40"/>
<path d="M86.6169 121.663C86.587 121.525 86.5872 121.381 86.6175 121.243C86.6478 121.105 86.7073 120.977 86.7913 120.868C86.8867 120.803 86.9938 120.761 87.1053 120.744C87.2168 120.728 87.3302 120.738 87.4381 120.773L88.4119 120.932C88.4932 120.943 88.572 120.969 88.6444 121.011C88.8116 121.122 88.8334 121.377 88.8552 121.591C88.877 121.806 88.9714 122.068 89.1749 122.084C89.2377 122.075 89.3011 122.075 89.3639 122.084C89.4077 122.103 89.4446 122.138 89.4694 122.182C89.4942 122.226 89.5056 122.278 89.5019 122.33C89.4926 122.423 89.4643 122.513 89.419 122.593C89.3737 122.672 89.3127 122.74 89.2403 122.79C89.1095 122.902 88.9496 122.973 88.8116 123.084C88.575 123.269 88.4013 123.535 88.3174 123.839C88.2853 124.027 88.2342 124.211 88.1648 124.387C88.0868 124.515 87.9766 124.615 87.8477 124.675C87.7187 124.736 87.5764 124.754 87.4381 124.729C86.9148 124.625 86.7985 124.26 86.784 123.767C86.7477 123.092 86.6677 122.377 86.6169 121.663Z" fill="#F3BD8F"/>
<path d="M90.0324 131.369C89.8372 131.141 89.6885 130.87 89.5964 130.575C89.5253 130.295 89.4839 130.007 89.4729 129.717L89.2113 126.039C89.1749 125.515 89.1458 123.601 88.8479 123.259C88.6995 123.129 88.5275 123.035 88.3434 122.983C88.1592 122.931 87.9671 122.922 87.7796 122.957H86.8058C86.651 122.95 86.4983 122.998 86.3698 123.092C86.1975 123.805 86.1168 124.54 86.13 125.277C86.13 126.976 86.13 128.684 86.13 130.384C86.1177 131.408 86.2202 132.43 86.4352 133.426C86.7003 134.345 87.0715 135.223 87.5398 136.039C87.9613 136.834 88.3973 137.628 88.8334 138.422C89.0005 138.732 89.2331 139.066 89.5165 139.01C89.6621 138.959 89.7893 138.859 89.8798 138.724C90.7164 137.492 91.2085 136.022 91.2969 134.491C91.405 134.103 91.3738 133.686 91.2097 133.323C90.8715 132.634 90.4775 131.98 90.0324 131.369V131.369Z" fill="#343A40"/>
<path d="M101.907 135.714C101.776 135.714 101.674 135.539 101.544 135.531C101.413 135.523 101.224 135.769 101.209 135.992C101.195 136.214 101.209 136.444 101.209 136.675C101.172 137.04 101.099 137.399 100.991 137.747C100.886 138.098 100.886 138.476 100.991 138.827C101.036 138.974 101.13 139.098 101.253 139.174C101.377 139.25 101.521 139.274 101.66 139.24C101.878 139.153 101.972 138.891 102.096 138.684C102.394 138.2 102.953 137.89 103.041 137.318C103.099 136.921 102.895 136.524 102.895 136.127C102.913 135.992 102.913 135.856 102.895 135.722C102.764 135.15 102.176 135.777 101.907 135.714Z" fill="#F3BD8F"/>
<path d="M95.7589 135.587C97.1142 137.188 98.2411 139.004 99.1018 140.972C99.8794 140.281 100.01 139.066 100.504 138.112C100.613 137.898 100.781 137.676 100.999 137.668C101.097 137.675 101.193 137.707 101.278 137.761C101.364 137.814 101.437 137.888 101.493 137.977C102.105 138.798 102.407 139.844 102.336 140.9C102.268 141.947 102.021 142.971 101.609 143.919C101.35 144.613 100.975 145.248 100.504 145.793C100.351 145.979 100.156 146.116 99.9375 146.191C99.6789 146.246 99.4109 146.206 99.1745 146.079C98.7864 145.878 98.4306 145.61 98.1208 145.285C97.2366 144.439 96.413 143.52 95.6572 142.537C94.5163 141.075 93.4771 139.399 93.3244 137.477C93.2683 137.032 93.3045 136.579 93.4303 136.151C93.5561 135.724 93.7683 135.333 94.0512 135.007C94.6907 134.387 95.3011 135.078 95.7589 135.587Z" fill="#343A40"/>
<path d="M102.299 140.837C102.235 141.882 101.988 142.904 101.573 143.847C101.315 144.543 100.943 145.181 100.475 145.73C100.32 145.91 100.125 146.044 99.9085 146.119C99.6482 146.177 99.378 146.14 99.1382 146.016C98.7549 145.81 98.4021 145.542 98.0917 145.221C97.5077 144.67 96.9544 144.082 96.4348 143.458C96.4348 144.356 96.4348 145.261 96.4348 146.167C96.4506 146.933 96.4191 147.7 96.3403 148.462C96.2626 149.069 96.1187 149.664 95.9116 150.234C95.6912 150.951 95.2722 151.575 94.7125 152.021C94.3738 152.238 93.9977 152.376 93.6079 152.426C93.1389 152.473 92.667 152.473 92.1981 152.426C91.3526 152.422 90.5124 152.28 89.7054 152.005C89.3045 151.859 88.9374 151.619 88.6299 151.302C88.3224 150.985 88.0819 150.599 87.925 150.17C87.7877 149.625 87.7482 149.056 87.8087 148.494C87.925 145.841 88.034 143.188 88.1503 140.551L88.2811 137.421L87.5544 136.095C87.0905 135.276 86.7196 134.399 86.4497 133.482C86.2343 132.485 86.1318 131.464 86.1445 130.44C86.1082 128.74 86.0937 127.032 86.1445 125.332C86.1284 124.595 86.2091 123.86 86.3843 123.148C86.5101 123.048 86.6656 123.002 86.8204 123.021L87.7869 122.973H88.1285C88.2614 122.967 88.3941 122.99 88.5188 123.04C88.6436 123.091 88.7579 123.168 88.8552 123.267V123.267C89.1531 123.609 89.1822 125.531 89.2185 126.047L89.4801 129.725C89.4876 130.015 89.5291 130.304 89.6037 130.583C89.7013 130.875 89.8493 131.145 90.0397 131.377C90.3043 131.713 90.5471 132.068 90.7664 132.441C91.2025 132.95 91.6457 133.569 92.0963 133.593C92.6991 133.594 93.2956 133.727 93.8508 133.984C94.4061 134.24 94.909 134.615 95.3302 135.086C95.4901 135.229 95.6427 135.396 95.7807 135.547C97.1245 137.142 98.2437 138.946 99.1018 140.901C99.8794 140.217 100.003 138.994 100.497 138.041C100.613 137.827 100.773 137.604 100.999 137.596C101.097 137.606 101.193 137.64 101.278 137.695C101.363 137.75 101.437 137.825 101.493 137.914C102.096 138.738 102.385 139.785 102.299 140.837Z" fill="url(#paint0_linear)"/>
<path d="M101.456 137.914C99.9521 143.617 99.5233 142.513 99.5233 142.513C99.5233 142.513 98.3751 142.028 96.5438 138.676C94.7125 135.325 93.0701 135.332 91.4568 134.705C89.8435 134.077 88.8842 131.909 88.5499 130.876C88.2157 129.844 87.7796 122.933 87.7796 122.933H88.1212C88.3801 122.973 88.628 123.073 88.8479 123.227V123.227C89.1459 123.569 89.1749 125.491 89.2113 126.007L89.4729 129.685C89.4803 129.976 89.5219 130.264 89.5964 130.543C89.694 130.836 89.842 131.105 90.0324 131.337C90.297 131.673 90.5398 132.029 90.7591 132.402C91.1952 132.91 91.6385 133.529 92.089 133.553C92.6918 133.555 93.2883 133.688 93.8435 133.944C94.3988 134.2 94.9017 134.575 95.3229 135.047C95.4828 135.189 95.6354 135.356 95.7735 135.507C97.1172 137.102 98.2364 138.906 99.0945 140.861C99.8721 140.178 99.9957 138.954 100.49 138.001C100.606 137.787 100.766 137.564 100.991 137.556C101.088 137.576 101.18 137.617 101.26 137.679C101.34 137.741 101.407 137.821 101.456 137.914Z" fill="url(#paint1_linear)"/>
<path d="M96.3258 148.47C96.2481 149.077 96.1042 149.672 95.897 150.241C95.6767 150.959 95.2576 151.583 94.6979 152.029C94.3593 152.246 93.9832 152.384 93.5933 152.434C91.2897 152.696 90.2723 152.529 93.9712 150.678C95.4247 149.971 95.4247 142.545 95.4247 142.545L96.3985 143.466C96.3985 144.364 96.3985 145.269 96.3985 146.175C96.4215 146.941 96.3973 147.708 96.3258 148.47V148.47Z" fill="url(#paint2_linear)"/>
<path d="M91.5077 131.742C91.8274 130.598 91.9074 129.304 92.6341 128.422C92.7219 128.303 92.8412 128.217 92.9756 128.176C93.0832 128.149 93.1951 128.149 93.3026 128.176L94.9596 128.557C95.0844 128.575 95.2051 128.618 95.3156 128.684C95.5513 128.858 95.7197 129.121 95.788 129.423C95.9992 130.079 96.1073 130.769 96.1078 131.464C96.1435 131.943 96.0138 132.419 95.7444 132.799C95.2284 133.41 94.1965 133.291 93.7677 133.982C93.5788 134.276 93.5279 134.697 93.2372 134.872C93.125 134.928 93.0042 134.96 92.8812 134.967C92.4026 135.03 91.9176 134.939 91.4859 134.705C91.1007 134.475 91.1152 133.911 91.2315 133.363C91.3478 132.815 91.3405 132.338 91.5077 131.742Z" fill="#F3BD8F"/>
<path d="M92.8521 126.849C92.2839 126.94 91.7664 127.257 91.3986 127.739C91.0133 128.437 90.8738 129.264 91.0062 130.066C91.1356 130.856 91.1207 131.666 90.9626 132.449C90.9117 132.6 90.8609 132.783 90.9626 132.91C91.0643 133.037 91.2678 133.021 91.4277 132.965C91.4332 133.056 91.463 133.143 91.5135 133.215C91.5639 133.287 91.6326 133.341 91.7111 133.371C91.7902 133.397 91.8746 133.399 91.9544 133.375C92.0341 133.351 92.106 133.302 92.1617 133.236C92.1617 133.466 92.4451 133.585 92.6268 133.49C92.8055 133.367 92.9412 133.183 93.0119 132.965L93.4334 132.02C93.4621 131.967 93.4772 131.907 93.477 131.846C93.4669 131.763 93.4339 131.685 93.3826 131.623C93.2317 131.392 93.1574 131.112 93.1718 130.829C93.1701 130.748 93.188 130.668 93.2237 130.596C93.2595 130.525 93.3117 130.466 93.3753 130.424C93.4493 130.396 93.5297 130.398 93.6028 130.428C93.6758 130.459 93.7367 130.516 93.775 130.591C93.8489 130.743 93.8911 130.911 93.8985 131.083L93.9712 131.877C93.9712 131.965 94.0221 132.084 94.102 132.052C94.182 132.02 94.1601 131.989 94.1674 131.949C94.239 131.324 94.2706 130.695 94.2619 130.066C94.2513 130.036 94.2513 130.002 94.2619 129.971C94.2955 129.937 94.3394 129.917 94.3854 129.915C94.8316 129.883 95.2669 129.75 95.6644 129.526C95.8613 129.412 96.03 129.248 96.1565 129.047C96.283 128.847 96.3635 128.616 96.3912 128.374C96.4013 128.261 96.3861 128.147 96.3469 128.042C96.3076 127.937 96.2455 127.844 96.1659 127.771C96.1123 127.738 96.0613 127.701 96.0133 127.66C95.9768 127.613 95.9495 127.559 95.9333 127.501C95.869 127.289 95.7863 127.084 95.6862 126.889C95.3883 126.381 94.9595 126.452 94.5162 126.667C93.9699 126.798 93.4114 126.86 92.8521 126.849V126.849Z" fill="#2E2E3F"/>
<path d="M85.3742 161.505C85.2231 161.913 85.1513 162.351 85.1634 162.791C85.1107 163.804 85.2014 164.819 85.4323 165.802C85.4609 165.97 85.5242 166.129 85.6174 166.267C85.7106 166.404 85.8312 166.517 85.9701 166.596C86.1109 166.634 86.2584 166.63 86.3975 166.586C86.5366 166.541 86.6625 166.457 86.7622 166.342C86.9971 166.021 87.1655 165.648 87.2558 165.249C87.3462 164.85 87.3563 164.434 87.2855 164.03C87.2418 163.23 87.1446 162.433 86.9948 161.648C86.9678 161.423 86.8985 161.206 86.7913 161.012C86.3916 160.361 85.5849 160.988 85.3742 161.505Z" fill="white"/>
<path d="M86.4207 163.737C86.1254 163.833 85.8538 164.001 85.626 164.228C85.3983 164.455 85.2203 164.735 85.1053 165.047C85.0327 165.357 85.0617 165.683 84.9818 165.984C84.8738 166.295 84.7297 166.588 84.553 166.858C84.3763 167.176 84.244 167.522 84.1606 167.883C84.0771 168.216 84.0771 168.567 84.1606 168.899C84.1999 169.065 84.2784 169.215 84.3881 169.337C84.4979 169.458 84.635 169.546 84.7856 169.591C84.9389 169.626 85.0974 169.626 85.2507 169.591C85.6077 169.479 85.9398 169.288 86.2262 169.03C86.5125 168.771 86.747 168.451 86.9148 168.089C87.2502 167.368 87.4783 166.593 87.5907 165.794C87.772 165.184 87.7871 164.53 87.6343 163.911C87.4235 163.403 86.7768 163.578 86.4207 163.737Z" fill="#2E2E3F"/>
<path d="M92.7067 173.808C92.4998 173.892 92.3203 174.042 92.1908 174.237C92.0438 174.553 91.9977 174.914 92.06 175.262L92.1835 176.954C92.1711 177.264 92.2673 177.568 92.4524 177.804C92.7139 177.955 93.0167 177.999 93.3051 177.926C93.5935 177.853 93.8482 177.668 94.0221 177.406C94.0749 177.263 94.0996 177.109 94.0947 176.954C94.1241 176.131 94.0876 175.307 93.9857 174.491C93.9494 174.182 93.9857 173.792 93.7096 173.697C93.3739 173.602 93.0182 173.642 92.7067 173.808Z" fill="white"/>
<path d="M91.9655 177.994C91.9644 177.831 92.0045 177.67 92.0814 177.53C92.1584 177.39 92.2691 177.276 92.4015 177.2C92.526 177.144 92.6592 177.114 92.7939 177.113L93.7169 177.017C93.7888 177.001 93.8629 177.001 93.9349 177.017C94.0148 177.053 94.0814 177.118 94.1238 177.2C94.3361 177.73 94.4355 178.306 94.4145 178.884C94.5074 179.331 94.6338 179.77 94.7924 180.194C94.9539 180.624 94.9968 181.096 94.9159 181.553C94.8888 181.661 94.8445 181.763 94.7851 181.854C94.6504 182.025 94.4599 182.13 94.2546 182.148C94.0493 182.163 93.8432 182.142 93.6442 182.085C93.477 182.058 93.315 182.002 93.1645 181.918C93.026 181.816 92.9013 181.693 92.7939 181.553C92.5784 181.32 92.397 181.052 92.2562 180.758C92.1567 180.492 92.0931 180.211 92.0672 179.924C91.98 179.192 91.9508 178.454 91.98 177.716" fill="#2E2E3F"/>
<path d="M222.418 235.279C225.274 237.511 223.297 249.425 222.745 251.324C222.588 251.594 222.37 251.816 222.112 251.967C221.146 252.285 220.456 251.92 220.521 250.712C220.637 248.544 221.008 246.375 220.841 244.215C220.852 243.95 220.806 243.686 220.707 243.444C220.607 243.203 220.456 242.99 220.267 242.825C220.057 242.711 219.825 242.653 219.591 242.658C218.864 242.61 218.377 242.499 217.948 243.198C217.426 244.16 217.145 245.256 217.134 246.375C217.04 247.845 216.887 249.314 216.728 250.784C216.332 253.703 216.135 256.65 216.139 259.6C216.139 260.998 216.284 262.476 215.696 263.723C215.598 263.974 215.448 264.197 215.257 264.374C215.067 264.55 214.841 264.676 214.598 264.74C212.92 265.01 213.145 258.385 213.145 257.265C213.029 254.088 212.978 250.911 212.92 247.734C212.92 245.597 212.92 243.452 212.767 241.324C212.733 241.016 212.75 240.703 212.818 240.402C212.92 240.069 213.632 240.164 213.872 239.934C214.908 239.047 215.998 238.237 217.134 237.511C218.043 236.828 221.48 234.516 222.418 235.279Z" fill="#2E2E3F"/>
<path d="M215.667 222.332C214.249 222.411 212.716 223.047 212.098 224.437C211.884 224.982 211.751 225.561 211.706 226.152C211.437 229.018 211.32 231.898 211.357 234.779C211.334 235.537 211.365 236.297 211.452 237.05C211.526 237.652 211.667 238.242 211.873 238.806C212.088 239.517 212.506 240.135 213.065 240.569C213.833 240.979 214.698 241.121 215.543 240.974C216.379 240.971 217.21 240.829 218.007 240.553C218.405 240.413 218.77 240.177 219.075 239.864C219.381 239.551 219.619 239.168 219.772 238.742C219.902 238.201 219.941 237.639 219.889 237.082L219.554 229.211L219.38 225.239C219.344 224.445 218.857 221.125 218.101 220.664C217.345 220.203 216.509 222.284 215.667 222.332Z" fill="#343A40"/>
<path d="M221.051 210.537C221.079 210.406 221.079 210.27 221.051 210.139C221.024 210.008 220.969 209.886 220.892 209.782C220.796 209.717 220.689 209.675 220.578 209.658C220.466 209.642 220.353 209.652 220.245 209.687L219.286 209.846C219.204 209.85 219.124 209.874 219.053 209.917C218.886 210.028 218.871 210.282 218.842 210.497C218.813 210.711 218.726 210.966 218.53 210.981C218.467 210.973 218.404 210.973 218.341 210.981C218.297 211.001 218.26 211.035 218.236 211.08C218.213 211.124 218.203 211.177 218.21 211.228C218.218 211.319 218.244 211.406 218.287 211.485C218.329 211.563 218.388 211.63 218.457 211.68C218.595 211.792 218.748 211.863 218.886 211.966C219.12 212.152 219.292 212.417 219.373 212.721C219.406 212.906 219.457 213.088 219.525 213.261C219.603 213.389 219.714 213.489 219.842 213.549C219.971 213.61 220.114 213.629 220.252 213.603C220.768 213.491 220.884 213.126 220.899 212.642C220.935 211.951 221.008 211.236 221.051 210.537Z" fill="#F3BD8F"/>
<path d="M217.68 220.132C217.875 219.904 218.023 219.633 218.116 219.337C218.188 219.064 218.227 218.78 218.232 218.495L218.493 214.85C218.53 214.341 218.559 212.467 218.857 212.101C219.003 211.974 219.173 211.881 219.355 211.831C219.536 211.78 219.726 211.772 219.911 211.807L220.87 211.847C221.023 211.834 221.175 211.882 221.299 211.982C221.479 212.685 221.56 213.413 221.538 214.143C221.567 215.821 221.567 217.503 221.538 219.187C221.55 220.199 221.45 221.21 221.24 222.197C220.979 223.104 220.612 223.972 220.15 224.778C219.729 225.583 219.3 226.378 218.864 227.161C218.697 227.463 218.472 227.797 218.195 227.741C218.048 227.694 217.92 227.593 217.832 227.455C217.002 226.238 216.515 224.784 216.43 223.269C216.325 222.887 216.356 222.476 216.517 222.117C216.85 221.42 217.239 220.755 217.68 220.132V220.132Z" fill="#343A40"/>
<path d="M205.936 224.429C206.067 224.429 206.161 224.262 206.292 224.246C206.423 224.23 206.612 224.485 206.626 224.707C206.641 224.929 206.626 225.152 206.626 225.382C206.664 225.741 206.735 226.095 206.837 226.438C206.939 226.787 206.939 227.162 206.837 227.511C206.792 227.658 206.699 227.781 206.575 227.857C206.452 227.934 206.307 227.957 206.168 227.924C205.958 227.836 205.863 227.574 205.74 227.368C205.449 226.891 204.889 226.574 204.809 226.018C204.751 225.62 204.955 225.223 204.948 224.842C204.929 224.708 204.929 224.571 204.948 224.437C205.093 223.881 205.667 224.492 205.936 224.429Z" fill="#F3BD8F"/>
<path d="M211.989 224.31C210.658 225.886 209.551 227.672 208.705 229.608C207.942 228.933 207.811 227.717 207.324 226.78C207.215 226.573 207.055 226.351 206.83 226.343C206.733 226.349 206.638 226.38 206.554 226.432C206.47 226.484 206.397 226.557 206.343 226.645C205.732 227.455 205.428 228.489 205.493 229.536C205.567 230.572 205.813 231.584 206.219 232.523C206.477 233.209 206.846 233.839 207.309 234.381C207.462 234.566 207.658 234.7 207.876 234.771C208.123 234.818 208.377 234.779 208.603 234.659C208.984 234.454 209.335 234.186 209.642 233.865C210.517 233.025 211.333 232.114 212.084 231.141C213.21 229.695 214.264 228.035 214.388 226.137C214.441 225.695 214.404 225.247 214.278 224.823C214.152 224.4 213.941 224.013 213.661 223.69C213.079 223.118 212.469 223.801 211.989 224.31Z" fill="#343A40"/>
<path d="M205.551 229.497C205.618 230.531 205.864 231.542 206.277 232.475C206.535 233.162 206.904 233.791 207.367 234.334C207.517 234.518 207.711 234.653 207.927 234.723C208.173 234.773 208.428 234.737 208.654 234.62C209.036 234.416 209.387 234.148 209.693 233.825C210.27 233.282 210.816 232.701 211.328 232.086C211.328 232.976 211.328 233.873 211.328 234.763C211.305 235.521 211.337 236.281 211.423 237.034C211.498 237.636 211.639 238.225 211.844 238.79C212.059 239.501 212.477 240.119 213.036 240.553C213.367 240.773 213.74 240.909 214.126 240.95C214.588 240.998 215.052 240.998 215.514 240.95C216.35 240.944 217.18 240.802 217.977 240.529C218.376 240.389 218.741 240.153 219.046 239.84C219.352 239.527 219.59 239.144 219.743 238.718C219.873 238.177 219.913 237.615 219.86 237.058C219.743 234.411 219.632 231.787 219.525 229.187C219.475 228.146 219.438 227.122 219.387 226.089C219.627 225.652 219.86 225.215 220.114 224.77C220.574 223.963 220.941 223.096 221.204 222.189C221.412 221.202 221.515 220.192 221.509 219.179C221.509 217.503 221.553 215.811 221.509 214.135C221.525 213.406 221.446 212.679 221.277 211.974C221.15 211.875 220.996 211.827 220.841 211.839L219.889 211.8H219.547C219.415 211.791 219.282 211.812 219.157 211.861C219.032 211.91 218.918 211.987 218.82 212.086V212.086C218.523 212.419 218.493 214.318 218.464 214.834L218.203 218.472C218.198 218.757 218.159 219.04 218.086 219.314C217.99 219.607 217.842 219.877 217.65 220.108C217.398 220.442 217.168 220.795 216.96 221.164C216.531 221.665 216.095 222.276 215.645 222.3C215.048 222.303 214.458 222.436 213.909 222.691C213.36 222.946 212.863 223.318 212.447 223.786C212.291 223.923 212.143 224.072 212.004 224.23C210.672 225.809 209.565 227.598 208.719 229.536C207.949 228.853 207.825 227.646 207.338 226.701C207.222 226.494 207.062 226.272 206.844 226.264C206.747 226.271 206.652 226.303 206.568 226.357C206.483 226.411 206.411 226.485 206.357 226.574C205.755 227.398 205.466 228.445 205.551 229.497V229.497Z" fill="url(#paint3_linear)"/>
<path d="M206.386 226.605C207.84 232.253 208.298 231.157 208.298 231.157C208.298 231.157 209.424 230.672 211.241 227.36C213.058 224.048 214.678 224.056 216.248 223.46C217.818 222.864 218.799 220.696 219.155 219.679C219.511 218.662 219.918 211.823 219.918 211.823H219.576C219.319 211.863 219.071 211.961 218.85 212.109V212.109C218.552 212.443 218.523 214.341 218.493 214.858L218.232 218.495C218.227 218.78 218.188 219.064 218.116 219.337C218.019 219.631 217.871 219.901 217.679 220.132C217.427 220.466 217.197 220.819 216.989 221.188C216.56 221.689 216.124 222.3 215.674 222.324C215.077 222.327 214.487 222.459 213.938 222.714C213.389 222.969 212.892 223.342 212.476 223.809C212.32 223.947 212.172 224.096 212.033 224.254C210.701 225.833 209.594 227.622 208.748 229.56C207.978 228.877 207.854 227.67 207.367 226.724C207.251 226.518 207.091 226.295 206.873 226.288C206.775 226.296 206.68 226.329 206.596 226.384C206.511 226.439 206.44 226.515 206.386 226.605V226.605Z" fill="url(#paint4_linear)"/>
<path d="M211.459 237.082C211.534 237.684 211.676 238.273 211.88 238.837C212.096 239.549 212.513 240.167 213.072 240.601C213.404 240.821 213.776 240.957 214.162 240.998C216.437 241.26 217.447 241.093 213.784 239.266C212.382 238.567 212.331 231.22 212.331 231.22L211.364 232.134C211.364 233.023 211.364 233.921 211.364 234.81C211.341 235.569 211.373 236.329 211.459 237.082V237.082Z" fill="url(#paint5_linear)"/>
<path d="M216.219 220.497C215.906 219.369 215.826 218.114 215.107 217.225C215.02 217.107 214.904 217.019 214.773 216.97C214.665 216.946 214.554 216.946 214.446 216.97L212.811 217.352C212.605 217.373 212.413 217.469 212.264 217.625C212.115 217.78 212.018 217.986 211.989 218.21C211.782 218.858 211.674 219.54 211.67 220.227C211.636 220.702 211.762 221.174 212.026 221.554C212.542 222.157 213.559 222.03 213.988 222.713C214.169 223.007 214.22 223.428 214.511 223.595C214.62 223.659 214.743 223.692 214.867 223.69C215.34 223.751 215.819 223.663 216.248 223.436C216.626 223.206 216.611 222.642 216.495 222.11C216.379 221.577 216.393 221.093 216.219 220.497Z" fill="#F3BD8F"/>
<path d="M214.896 215.636C215.465 215.718 215.985 216.033 216.35 216.518C216.727 217.21 216.866 218.027 216.742 218.821C216.61 219.611 216.625 220.421 216.786 221.204C216.829 221.355 216.887 221.53 216.786 221.657C216.684 221.784 216.48 221.768 216.321 221.712C216.316 221.802 216.286 221.888 216.235 221.959C216.185 222.03 216.116 222.082 216.037 222.11C215.96 222.139 215.877 222.143 215.798 222.121C215.718 222.098 215.648 222.05 215.594 221.982C215.594 222.205 215.318 222.324 215.129 222.229C214.955 222.106 214.822 221.925 214.751 221.712L214.337 220.775C214.308 220.725 214.293 220.667 214.293 220.608C214.302 220.525 214.335 220.447 214.387 220.386C214.538 220.155 214.61 219.874 214.591 219.592C214.595 219.511 214.579 219.431 214.544 219.359C214.51 219.288 214.458 219.228 214.395 219.187C214.32 219.163 214.24 219.167 214.167 219.198C214.095 219.23 214.034 219.287 213.995 219.361C213.922 219.51 213.882 219.677 213.879 219.846L213.806 220.64C213.806 220.727 213.755 220.839 213.683 220.815C213.61 220.791 213.624 220.751 213.61 220.704C213.531 220.077 213.489 219.446 213.486 218.813C213.49 218.782 213.49 218.75 213.486 218.718C213.452 218.686 213.408 218.669 213.363 218.67C212.922 218.63 212.493 218.498 212.098 218.281C211.902 218.168 211.734 218.005 211.607 217.806C211.481 217.607 211.4 217.378 211.372 217.137C211.359 217.025 211.373 216.911 211.412 216.807C211.452 216.702 211.515 216.611 211.597 216.542C211.647 216.51 211.696 216.475 211.742 216.438C211.776 216.39 211.803 216.336 211.822 216.279C211.886 216.067 211.969 215.863 212.069 215.668C212.36 215.167 212.796 215.239 213.225 215.453C213.773 215.587 214.334 215.649 214.896 215.636Z" fill="#2E2E3F"/>
<path d="M222.287 249.942C222.435 250.345 222.504 250.778 222.49 251.213C222.548 252.214 222.462 253.219 222.236 254.191C222.207 254.359 222.143 254.518 222.05 254.656C221.957 254.793 221.837 254.906 221.698 254.986C221.559 255.025 221.413 255.022 221.275 254.979C221.137 254.936 221.012 254.853 220.913 254.739C220.682 254.421 220.517 254.052 220.428 253.657C220.339 253.262 220.328 252.851 220.397 252.452C220.441 251.651 220.536 250.855 220.681 250.069C220.713 249.848 220.782 249.635 220.884 249.441C221.284 248.806 222.062 249.433 222.287 249.942Z" fill="white"/>
<path d="M221.248 252.174C221.542 252.267 221.813 252.433 222.04 252.659C222.267 252.885 222.443 253.164 222.556 253.476C222.628 253.778 222.599 254.096 222.679 254.398C222.783 254.703 222.925 254.992 223.101 255.256C223.275 255.571 223.405 255.914 223.486 256.272C223.566 256.6 223.566 256.945 223.486 257.273C223.444 257.437 223.365 257.586 223.255 257.707C223.146 257.828 223.01 257.916 222.861 257.964C222.71 258 222.554 258 222.403 257.964C222.05 257.856 221.72 257.669 221.436 257.415C221.153 257.16 220.92 256.844 220.753 256.487C220.425 255.769 220.199 255 220.085 254.207C219.904 253.605 219.891 252.958 220.049 252.348C220.259 251.824 220.899 251.991 221.248 252.174Z" fill="#2E2E3F"/>
<path d="M215.034 262.11C215.239 262.194 215.417 262.344 215.543 262.539C215.688 262.853 215.734 263.211 215.674 263.556L215.55 265.224C215.561 265.53 215.468 265.83 215.289 266.066C215.152 266.166 214.994 266.226 214.83 266.242C214.666 266.257 214.501 266.226 214.351 266.153C214.223 266.125 214.101 266.067 213.995 265.983C213.889 265.9 213.799 265.793 213.733 265.669C213.683 265.524 213.658 265.371 213.661 265.216C213.632 264.404 213.668 263.591 213.77 262.785C213.806 262.484 213.77 262.094 214.039 261.991C214.373 261.901 214.726 261.943 215.034 262.11Z" fill="white"/>
<path d="M215.768 266.257C215.768 266.094 215.729 265.935 215.653 265.795C215.578 265.656 215.47 265.541 215.339 265.462C215.213 265.414 215.081 265.384 214.947 265.375L214.031 265.288C213.962 265.271 213.89 265.271 213.821 265.288C213.743 265.323 213.677 265.384 213.632 265.462C213.422 265.987 213.325 266.558 213.348 267.13C213.255 267.575 213.129 268.011 212.97 268.433C212.806 268.854 212.765 269.32 212.854 269.767C212.875 269.876 212.918 269.979 212.978 270.069C213.044 270.154 213.125 270.224 213.216 270.274C213.307 270.325 213.406 270.355 213.508 270.363C213.711 270.373 213.914 270.352 214.111 270.3C214.276 270.272 214.435 270.216 214.584 270.133C214.721 270.035 214.844 269.915 214.947 269.775C215.16 269.542 215.339 269.274 215.478 268.981C215.574 268.727 215.637 268.46 215.667 268.187C215.754 267.463 215.783 266.732 215.754 266.002" fill="#2E2E3F"/>
<path d="M162.5 97.2856C165.356 99.5176 163.38 111.424 162.827 113.33C162.668 113.599 162.451 113.82 162.195 113.974C161.228 114.292 160.538 113.926 160.604 112.719C160.72 110.55 161.09 108.382 160.923 106.214C160.933 105.949 160.887 105.686 160.787 105.444C160.687 105.203 160.537 104.99 160.349 104.824C160.138 104.712 159.907 104.655 159.673 104.657C158.947 104.617 158.46 104.506 158.031 105.205C157.508 106.167 157.228 107.263 157.217 108.382C157.123 109.851 156.97 111.321 156.81 112.79C156.414 115.709 156.218 118.656 156.221 121.607C156.258 123.005 156.367 124.482 155.778 125.721C155.681 125.974 155.531 126.198 155.341 126.376C155.15 126.554 154.924 126.681 154.681 126.746C153.002 127.016 153.227 120.392 153.227 119.264C153.111 116.087 153.06 112.909 153.002 109.732C153.002 107.604 153.002 105.459 152.849 103.322C152.815 103.014 152.832 102.702 152.9 102.401C153.002 102.075 153.714 102.171 153.954 101.94C154.991 101.053 156.081 100.244 157.217 99.5176C158.125 98.7948 161.526 96.4913 162.5 97.2856Z" fill="#2E2E3F"/>
<path d="M155.756 84.3068C154.339 84.3783 152.806 85.0137 152.188 86.4117C151.974 86.9567 151.841 87.5361 151.796 88.1273C151.527 90.9929 151.41 93.8731 151.447 96.7534C151.428 97.5121 151.459 98.2714 151.541 99.0251C151.616 99.6243 151.757 100.211 151.963 100.773C152.175 101.488 152.593 102.109 153.155 102.544C153.924 102.95 154.788 103.091 155.633 102.949C156.469 102.939 157.299 102.795 158.096 102.52C158.494 102.381 158.859 102.147 159.164 101.835C159.47 101.523 159.708 101.141 159.862 100.717C159.992 100.176 160.031 99.6134 159.979 99.0569L159.644 91.1854L159.47 87.2139C159.47 86.4196 158.947 83.0994 158.191 82.6308C157.435 82.1622 156.592 84.2591 155.756 84.3068Z" fill="#343A40"/>
<path d="M161.163 72.5035C161.193 72.366 161.193 72.2228 161.164 72.0851C161.135 71.9473 161.078 71.8187 160.996 71.7092C160.899 71.6472 160.792 71.6074 160.681 71.5924C160.57 71.5774 160.457 71.5874 160.349 71.6219L159.39 71.7728C159.309 71.7835 159.23 71.8104 159.157 71.8522C158.99 71.9634 158.976 72.2176 158.947 72.432C158.918 72.6465 158.83 72.9007 158.634 72.9166C158.571 72.9085 158.508 72.9085 158.445 72.9166C158.4 72.9344 158.363 72.9688 158.339 73.0138C158.315 73.0588 158.306 73.1115 158.314 73.1628C158.321 73.2537 158.348 73.3416 158.392 73.419C158.436 73.4963 158.497 73.561 158.569 73.6076C158.699 73.7188 158.852 73.7982 158.99 73.9015C159.224 74.0856 159.398 74.3475 159.484 74.6481C159.51 74.8347 159.558 75.0165 159.63 75.1883C159.708 75.3158 159.818 75.416 159.947 75.4766C160.076 75.5372 160.218 75.5557 160.356 75.5298C160.872 75.4266 160.989 75.0612 161.003 74.5767C161.018 73.9174 161.09 73.2105 161.163 72.5035Z" fill="#F3BD8F"/>
<path d="M157.762 82.1066C157.955 81.8771 158.104 81.6068 158.198 81.3123C158.27 81.0383 158.309 80.7553 158.314 80.4703L158.576 76.8245C158.612 76.3082 158.641 74.4416 158.939 74.0763C159.085 73.9471 159.255 73.8539 159.437 73.8032C159.619 73.7524 159.808 73.7453 159.993 73.7824H160.952C161.106 73.7689 161.258 73.8169 161.381 73.9174C161.561 74.6174 161.642 75.3433 161.621 76.0699C161.65 77.7538 161.65 79.4378 161.621 81.1217C161.626 82.1347 161.524 83.1449 161.316 84.1321C161.054 85.0395 160.687 85.9069 160.226 86.7135C159.804 87.5131 159.375 88.3074 158.939 89.0964C158.772 89.3903 158.547 89.7319 158.271 89.6683C158.124 89.6241 157.996 89.5259 157.907 89.3903C157.078 88.1736 156.59 86.719 156.505 85.2044C156.399 84.8197 156.43 84.4053 156.592 84.0447C156.93 83.3628 157.321 82.7143 157.762 82.1066V82.1066Z" fill="#343A40"/>
<path d="M146.018 86.4037C146.149 86.4037 146.244 86.2369 146.374 86.221C146.505 86.2051 146.694 86.4593 146.709 86.6738C146.723 86.8882 146.709 87.1265 146.709 87.3489C146.746 87.7106 146.817 88.0672 146.92 88.4133C147.025 88.7615 147.025 89.1374 146.92 89.4856C146.873 89.6311 146.779 89.7527 146.656 89.8274C146.533 89.9021 146.388 89.9247 146.251 89.8907C146.04 89.8033 145.946 89.5491 145.822 89.3426C145.532 88.866 144.972 88.5483 144.892 87.9923C144.834 87.5952 145.037 87.198 145.03 86.8088C145.012 86.6772 145.012 86.5433 145.03 86.4117C145.175 85.8477 145.75 86.4673 146.018 86.4037Z" fill="#F3BD8F"/>
<path d="M152.072 86.2846C150.739 87.8593 149.631 89.6455 148.787 91.5825C148.024 90.8994 147.893 89.6921 147.406 88.7548C147.38 88.6415 147.324 88.5394 147.244 88.4619C147.164 88.3844 147.064 88.3352 146.958 88.3206C146.852 88.306 146.744 88.3267 146.649 88.3801C146.554 88.4335 146.476 88.5171 146.425 88.6198C145.819 89.4309 145.522 90.4666 145.597 91.511C145.667 92.5447 145.914 93.5549 146.324 94.4896C146.583 95.1774 146.952 95.8094 147.414 96.3562C147.57 96.5354 147.765 96.6691 147.981 96.7455C148.227 96.7929 148.482 96.7539 148.707 96.6342C149.088 96.4286 149.439 96.1608 149.746 95.8399C150.623 95.0047 151.44 94.0965 152.188 93.1235C153.315 91.6778 154.368 90.0178 154.492 88.1194C154.546 87.6781 154.509 87.2292 154.383 86.8057C154.258 86.3823 154.046 85.9951 153.765 85.6729C153.169 85.0931 152.552 85.7762 152.072 86.2846Z" fill="#343A40"/>
<path d="M145.633 91.4714C145.705 92.5048 145.951 93.5148 146.36 94.45C146.618 95.1363 146.987 95.766 147.45 96.3086C147.6 96.4926 147.794 96.6274 148.01 96.6978C148.256 96.7482 148.51 96.7121 148.736 96.5946C149.119 96.3909 149.469 96.1229 149.775 95.8003C150.354 95.2565 150.9 94.6728 151.411 94.0528C151.411 94.9424 151.411 95.84 151.411 96.7375C151.388 97.4963 151.419 98.2559 151.505 99.0092C151.58 99.6082 151.722 100.195 151.927 100.757C152.144 101.469 152.561 102.089 153.118 102.528C153.45 102.748 153.822 102.884 154.208 102.925C154.67 102.973 155.135 102.973 155.596 102.925C156.432 102.915 157.262 102.773 158.06 102.504C158.456 102.359 158.819 102.122 159.124 101.809C159.428 101.497 159.668 101.116 159.826 100.693C159.959 100.153 159.999 99.5895 159.942 99.0331C159.826 96.4039 159.717 93.7828 159.608 91.1536C159.557 90.121 159.521 89.0964 159.47 88.0559C159.71 87.6269 159.942 87.1901 160.197 86.7453C160.656 85.937 161.022 85.07 161.287 84.1638C161.495 83.1767 161.597 82.1664 161.592 81.1534C161.592 79.4695 161.635 77.7856 161.592 76.1017C161.607 75.3758 161.529 74.6512 161.359 73.9491C161.233 73.85 161.079 73.8023 160.923 73.8141H159.971H159.63C159.497 73.8036 159.364 73.8237 159.239 73.8729C159.113 73.9222 158.999 73.9995 158.903 74.1001V74.1001C158.605 74.4337 158.576 76.34 158.547 76.8483L158.285 80.4862C158.281 80.7739 158.242 81.0596 158.169 81.3361C158.073 81.6295 157.924 81.8994 157.733 82.1304C157.481 82.4647 157.25 82.8177 157.043 83.1868C156.614 83.6872 156.178 84.2988 155.727 84.3227C155.131 84.326 154.542 84.4583 153.993 84.7119C153.445 84.9654 152.947 85.3353 152.53 85.8001C152.37 85.943 152.224 86.1019 152.086 86.2528C150.755 87.8293 149.648 89.6152 148.802 91.5508C148.031 90.8756 147.908 89.6683 147.421 88.7231C147.305 88.5086 147.145 88.2942 146.927 88.2862C146.829 88.292 146.734 88.323 146.649 88.3769C146.564 88.4308 146.493 88.5059 146.44 88.596C145.847 89.4081 145.559 90.4358 145.633 91.4714V91.4714Z" fill="url(#paint6_linear)"/>
<path d="M146.469 88.5484C147.922 94.1879 148.38 93.0997 148.38 93.0997C148.38 93.0997 149.507 92.6152 151.323 89.3029C153.14 85.9907 154.761 85.9907 156.33 85.4029C157.9 84.8152 158.881 82.6388 159.237 81.6221C159.593 80.6054 160 73.7665 160 73.7665H159.659C159.401 73.8065 159.154 73.9038 158.932 74.0524V74.0524C158.634 74.386 158.605 76.2923 158.576 76.8007L158.314 80.4386C158.31 80.7262 158.271 81.012 158.198 81.2885C158.102 81.5819 157.954 81.8517 157.762 82.0828C157.51 82.4171 157.279 82.7701 157.072 83.1392C156.643 83.6396 156.207 84.2512 155.756 84.275C155.161 84.2784 154.571 84.4107 154.022 84.6642C153.474 84.9178 152.976 85.2877 152.559 85.7524C152.399 85.8954 152.254 86.0543 152.116 86.2052C150.784 87.7817 149.677 89.5675 148.831 91.5032C148.06 90.828 147.937 89.6207 147.45 88.6755C147.334 88.461 147.174 88.2465 146.956 88.2386C146.858 88.2443 146.763 88.2754 146.678 88.3293C146.594 88.3831 146.522 88.4582 146.469 88.5484Z" fill="url(#paint7_linear)"/>
<path d="M151.541 99.0251C151.617 99.6241 151.758 100.211 151.963 100.773C152.18 101.485 152.597 102.105 153.155 102.544C153.486 102.764 153.859 102.9 154.245 102.941C156.519 103.203 157.53 103.036 153.867 101.209C152.464 100.51 152.413 93.1632 152.413 93.1632L151.461 94.1084C151.461 94.998 151.461 95.8956 151.461 96.7932C151.436 97.5383 151.462 98.2845 151.541 99.0251V99.0251Z" fill="url(#paint8_linear)"/>
<path d="M162.369 111.917C162.518 112.32 162.587 112.753 162.573 113.187C162.631 114.189 162.545 115.194 162.319 116.166C162.288 116.334 162.225 116.492 162.132 116.629C162.039 116.767 161.919 116.88 161.781 116.96C161.642 116.999 161.497 116.995 161.36 116.95C161.223 116.906 161.1 116.821 161.003 116.706C160.769 116.391 160.601 116.024 160.51 115.63C160.42 115.236 160.41 114.825 160.48 114.427C160.524 113.626 160.618 112.83 160.763 112.044C160.796 111.823 160.865 111.61 160.967 111.416C161.367 110.789 162.144 111.408 162.369 111.917Z" fill="white"/>
<path d="M161.33 114.125C161.624 114.218 161.894 114.383 162.121 114.607C162.348 114.831 162.525 115.109 162.638 115.419C162.711 115.721 162.682 116.047 162.762 116.349C162.866 116.654 163.008 116.943 163.183 117.207C163.358 117.522 163.488 117.865 163.569 118.223C163.648 118.551 163.648 118.896 163.569 119.224C163.526 119.387 163.446 119.536 163.337 119.657C163.228 119.778 163.093 119.867 162.944 119.915C162.793 119.951 162.637 119.951 162.486 119.915C162.132 119.804 161.804 119.615 161.52 119.359C161.236 119.104 161.004 118.787 160.836 118.43C160.508 117.714 160.283 116.948 160.167 116.158C159.985 115.554 159.972 114.904 160.131 114.292C160.342 113.791 160.981 113.966 161.33 114.125Z" fill="#2E2E3F"/>
<path d="M155.117 124.085C155.32 124.169 155.497 124.315 155.626 124.506C155.771 124.82 155.817 125.177 155.756 125.523L155.633 127.199C155.643 127.505 155.55 127.805 155.371 128.041C155.235 128.141 155.077 128.202 154.913 128.218C154.749 128.233 154.584 128.202 154.434 128.128C154.306 128.098 154.185 128.04 154.079 127.956C153.972 127.873 153.883 127.766 153.816 127.644C153.766 127.499 153.741 127.346 153.743 127.191C153.714 126.379 153.751 125.565 153.852 124.76C153.889 124.451 153.852 124.069 154.121 123.966C154.456 123.876 154.808 123.918 155.117 124.085V124.085Z" fill="white"/>
<path d="M155.858 128.263C155.858 128.1 155.817 127.94 155.74 127.801C155.663 127.661 155.553 127.546 155.422 127.469C155.296 127.42 155.164 127.391 155.03 127.382L154.114 127.286C154.044 127.275 153.973 127.275 153.903 127.286C153.827 127.324 153.761 127.385 153.714 127.461C153.504 127.986 153.407 128.557 153.431 129.129C153.337 129.574 153.211 130.009 153.053 130.432C152.889 130.853 152.848 131.319 152.937 131.766C152.966 131.932 153.047 132.082 153.166 132.189C153.286 132.297 153.436 132.355 153.591 132.354C153.793 132.367 153.996 132.348 154.194 132.298C154.358 132.267 154.517 132.211 154.666 132.131C154.801 132.029 154.923 131.909 155.03 131.774C155.243 131.541 155.422 131.273 155.56 130.98C155.657 130.726 155.721 130.459 155.749 130.185C155.836 129.461 155.865 128.731 155.836 128.001" fill="#2E2E3F"/>
<path d="M153.38 83.9811C153.363 84.3246 153.388 84.6691 153.453 85.0057C153.49 85.1715 153.557 85.3274 153.651 85.4639C153.744 85.6004 153.862 85.7147 153.998 85.8C154.176 85.8936 154.374 85.9373 154.572 85.9271C154.953 85.9338 155.32 85.777 155.596 85.4903C155.79 85.2118 155.915 84.8836 155.96 84.5371C156.135 83.6179 156.213 82.6798 156.192 81.7412C156.194 81.5737 156.169 81.4072 156.12 81.2487C156 81.0318 155.819 80.8643 155.603 80.7723C155.387 80.6803 155.15 80.6691 154.928 80.7404C154.642 80.7969 154.37 80.9152 154.126 81.0884C153.883 81.2617 153.674 81.4863 153.511 81.7491C153.327 82.4754 153.283 83.2352 153.38 83.9811V83.9811Z" fill="#F3BD8F"/>
<path d="M151.934 81.0025C151.973 81.4466 152.061 81.8839 152.195 82.3052C152.328 82.6706 152.524 83.0039 152.775 83.2857C153.025 83.5676 153.324 83.7926 153.655 83.9476C153.985 84.1026 154.34 84.1847 154.7 84.1891C155.059 84.1935 155.416 84.1201 155.749 83.9732C156.106 83.831 156.414 83.5699 156.628 83.2266C156.781 82.9133 156.877 82.5708 156.912 82.2178C157.019 81.4553 157.08 80.6857 157.093 79.9143C157.118 79.4652 157.077 79.0145 156.97 78.5799C156.861 78.1468 156.6 77.7785 156.243 77.5553C155.92 77.4172 155.573 77.3576 155.226 77.3805C154.238 77.3805 152.966 77.2932 152.108 77.9445C151.759 78.2145 151.81 78.5958 151.825 79.0327C151.825 79.6919 151.868 80.3433 151.934 81.0025Z" fill="#F3BD8F"/>
<path d="M156.432 80.4385C156.513 80.6209 156.537 80.8276 156.499 81.026C156.46 81.2245 156.363 81.4034 156.221 81.5347L156.011 82.9406C156.011 83.163 155.909 83.4251 155.705 83.4807C155.626 83.4807 155.538 83.4807 155.458 83.4807C155.153 83.4807 154.884 83.854 154.608 83.7269C154.543 83.6811 154.475 83.6413 154.405 83.6078C154.267 83.6078 154.143 83.6793 154.012 83.7428C153.821 83.8045 153.617 83.7977 153.43 83.7234C153.243 83.6491 153.083 83.5111 152.973 83.3298C152.757 82.9693 152.561 82.5953 152.384 82.2098C152.153 81.8996 151.956 81.5611 151.796 81.2011C151.665 80.788 151.73 80.2956 151.512 79.9222C151.451 79.8402 151.399 79.7493 151.36 79.6522C151.334 79.5373 151.334 79.4175 151.36 79.3027C151.357 78.7698 151.401 78.2379 151.491 77.7141C151.587 77.1995 151.819 76.7271 152.159 76.3558C152.369 76.1426 152.622 75.9868 152.897 75.9012C153.172 75.8156 153.462 75.8026 153.743 75.8634C154.493 75.433 155.354 75.293 156.185 75.4662C156.265 75.475 156.34 75.5144 156.396 75.5774C156.49 75.7125 156.396 75.911 156.309 76.054C156.544 76.1615 156.751 76.3308 156.912 76.547C157.073 76.7632 157.183 77.0195 157.232 77.2931C157.093 77.2931 156.977 77.444 156.963 77.6029C156.966 77.7609 156.996 77.9169 157.05 78.0636C157.128 78.3201 157.172 78.5876 157.181 78.8579C157.194 78.9902 157.176 79.1241 157.13 79.2471C157.071 79.366 156.998 79.4755 156.912 79.5727C156.676 79.8017 156.508 80.1036 156.432 80.4385V80.4385Z" fill="#2E2E3F"/>
<path d="M178.43 136.397C176.7 137.358 174.985 138.573 174.011 140.368C172.136 143.919 173.83 148.788 176.918 151.075C180.007 153.363 184.098 153.538 187.819 152.807C191.54 152.076 195.035 150.527 198.72 149.63C199.231 149.468 199.769 149.427 200.297 149.511C201.416 149.773 202.07 150.996 202.855 151.894C205.216 154.658 209.104 154.848 212.571 154.84L245.411 154.761C255.04 154.761 265.119 154.602 273.571 149.574C274.777 148.859 276.005 147.986 276.478 146.564C276.694 145.76 276.713 144.907 276.532 144.093C276.35 143.279 275.976 142.531 275.446 141.925C274.363 140.735 273.07 139.797 271.645 139.169C267.953 137.263 264.015 135.674 259.931 135.603C260.247 134.057 260.245 132.455 259.924 130.91C259.604 129.366 258.973 127.919 258.077 126.675C256.252 124.173 253.804 122.3 251.028 121.281C244.96 118.851 237.482 119.875 233.049 125.007C229.751 120.036 225.034 116.403 219.642 114.681C214.271 113.092 208.225 113.942 203.654 117.437C201.365 119.204 199.533 121.587 198.334 124.355C197.47 126.357 197.608 130.71 196.227 132.171C194.846 133.633 190.086 132.735 188.08 133.053C184.718 133.585 181.459 134.715 178.43 136.397Z" fill="white"/>
<path d="M248.223 190.052C247.347 190.032 246.474 190.18 245.643 190.489C244.292 191.068 243.347 192.395 242.475 193.666C241.022 195.779 239.568 198.773 241.058 200.814C242.053 202.196 243.892 202.363 245.505 202.324C249.949 202.229 254.363 201.505 258.637 200.171C259.909 199.782 261.304 199.337 262.503 199.957C263.353 200.393 263.92 201.291 264.683 201.863C265.846 202.705 267.336 202.737 268.731 202.745H276.478C282.684 202.745 289.922 202.212 293.432 196.613C293.962 195.855 294.329 194.977 294.507 194.044C294.684 193.11 294.667 192.145 294.457 191.219C293.592 188.344 290.46 187.248 287.756 186.573C281.732 185.063 270.177 179.178 265.381 184.642C263.71 186.541 262.983 189.011 260.541 189.909C257.089 191.227 251.871 189.925 248.223 190.052Z" fill="white"/>
</g>
<defs>
<linearGradient id="paint0_linear" x1="86.3335" y1="160.202" x2="100.149" y2="119.846" gradientUnits="userSpaceOnUse">
<stop offset="0.01"/>
<stop offset="0.13" stop-opacity="0.69"/>
<stop offset="1" stop-opacity="0"/>
</linearGradient>
<linearGradient id="paint1_linear" x1="89.7999" y1="141.846" x2="104.568" y2="113.957" gradientUnits="userSpaceOnUse">
<stop offset="0.02" stop-color="white" stop-opacity="0"/>
<stop offset="0.58" stop-color="white" stop-opacity="0.39"/>
<stop offset="0.68" stop-color="white" stop-opacity="0.68"/>
<stop offset="1" stop-color="white"/>
</linearGradient>
<linearGradient id="paint2_linear" x1="718.658" y1="2062.36" x2="862.493" y2="2089.04" gradientUnits="userSpaceOnUse">
<stop offset="0.01"/>
<stop offset="0.13" stop-opacity="0.69"/>
<stop offset="1" stop-opacity="0"/>
</linearGradient>
<linearGradient id="paint3_linear" x1="-54063.5" y1="9656.26" x2="-54769.5" y2="8420.97" gradientUnits="userSpaceOnUse">
<stop offset="0.01"/>
<stop offset="0.13" stop-opacity="0.69"/>
<stop offset="1" stop-opacity="0"/>
</linearGradient>
<linearGradient id="paint4_linear" x1="-45410.8" y1="6051.29" x2="-45815.5" y2="5469.07" gradientUnits="userSpaceOnUse">
<stop offset="0.02" stop-color="white" stop-opacity="0"/>
<stop offset="0.58" stop-color="white" stop-opacity="0.39"/>
<stop offset="0.68" stop-color="white" stop-opacity="0.68"/>
<stop offset="1" stop-color="white"/>
</linearGradient>
<linearGradient id="paint5_linear" x1="-14595.8" y1="3231.54" x2="-14737.1" y2="3257.9" gradientUnits="userSpaceOnUse">
<stop offset="0.01"/>
<stop offset="0.13" stop-opacity="0.69"/>
<stop offset="1" stop-opacity="0"/>
</linearGradient>
<linearGradient id="paint6_linear" x1="-55310.9" y1="4440.4" x2="-56015.5" y2="3206.07" gradientUnits="userSpaceOnUse">
<stop offset="0.01"/>
<stop offset="0.13" stop-opacity="0.69"/>
<stop offset="1" stop-opacity="0"/>
</linearGradient>
<linearGradient id="paint7_linear" x1="-46466.5" y1="2538.63" x2="-46871.2" y2="1956.44" gradientUnits="userSpaceOnUse">
<stop offset="0.02" stop-color="white" stop-opacity="0"/>
<stop offset="0.58" stop-color="white" stop-opacity="0.39"/>
<stop offset="0.68" stop-color="white" stop-opacity="0.68"/>
<stop offset="1" stop-color="white"/>
</linearGradient>
<linearGradient id="paint8_linear" x1="-14891.1" y1="1377.39" x2="-15032" y2="1403.61" gradientUnits="userSpaceOnUse">
<stop offset="0.01"/>
<stop offset="0.13" stop-opacity="0.69"/>
<stop offset="1" stop-opacity="0"/>
</linearGradient>
<clipPath id="clip0">
<rect width="302" height="302" fill="white"/>
</clipPath>
</defs>
</svg>
